<svg width="23" height="22" viewBox="0 0 23 22" fill="none" xmlns="http://www.w3.org/2000/svg">
<path d="M18.5412 3.9092C16.6602 2.05802 14.1268 1.02051 11.4876 1.02051C8.84847 1.02051 6.31508 2.05802 4.43405 3.9092V3.9092C2.95314 5.38427 1.97329 7.28747 1.63301 9.34978C1.29273 11.4121 1.60924 13.5292 2.53778 15.4018L2.09244 19.0794C2.06879 19.2567 2.08631 19.437 2.14365 19.6064C2.20098 19.7758 2.29658 19.9297 2.42302 20.0561C2.54947 20.1826 2.70338 20.2782 2.87277 20.3355C3.04215 20.3928 3.22245 20.4104 3.39971 20.3867L7.07734 19.9414C8.94996 20.8699 11.0671 21.1864 13.1294 20.8461C15.1917 20.5059 17.0949 19.526 18.5699 18.0451V18.0451C19.501 17.1177 20.2394 16.0152 20.7422 14.8011C21.2451 13.587 21.5027 12.2853 21.5 10.9712C21.4973 9.65703 21.2345 8.35643 20.7267 7.14437C20.2189 5.93231 19.4761 4.83278 18.5412 3.9092V3.9092Z" stroke="black" stroke-width="1.3" stroke-linecap="round" stroke-linejoin="round"/>
</svg>
